<svg xmlns="http://www.w3.org/2000/svg" viewBox="0 0 256 256" role="img" aria-labelledby="title desc">
  <title id="title">BoomBot Hex‑Shield Robot</title>
  <desc id="desc">Bold geometric robot head with central antenna inside a hex shield, using BoomBot gold and blue accents.</desc>

  <defs>
    <!-- Brand gradients -->
    <linearGradient id="brand" x1="0" y1="0" x2="1" y2="1">
      <stop offset="0%" stop-color="#fcd535"/>
      <stop offset="55%" stop-color="#f0b90b"/>
      <stop offset="100%" stop-color="#1e96fc"/>
    </linearGradient>
    <linearGradient id="gold" x1="0" y1="0" x2="0" y2="1">
      <stop offset="0%" stop-color="#fcd535"/>
      <stop offset="100%" stop-color="#f0b90b"/>
    </linearGradient>
    <linearGradient id="blue" x1="0" y1="0" x2="0" y2="1">
      <stop offset="0%" stop-color="#4dabf7"/>
      <stop offset="100%" stop-color="#1e96fc"/>
    </linearGradient>

    <!-- Soft panel glow confined to inner hex -->
    <linearGradient id="panelGrad" x1="0" y1="0" x2="1" y2="1">
      <stop offset="0%" stop-color="#f0b90b" stop-opacity="0.18"/>
      <stop offset="100%" stop-color="#1e96fc" stop-opacity="0.12"/>
    </linearGradient>

    <!-- Inner hex clip (inset for content) -->
    <clipPath id="hexClip">
      <polygon points="128,44 202.8,86 202.8,170 128,212 53.2,170 53.2,86"/>
    </clipPath>
  </defs>

  <!-- Hex shield -->
  <polygon
    points="128,28 214.6,78 214.6,178 128,228 41.4,178 41.4,78"
    fill="none"
    stroke="url(#brand)"
    stroke-width="12"
    stroke-linejoin="round"
    stroke-linecap="round"
  />

  <!-- Inner guide hex -->
  <polygon
    points="128,44 202.8,86 202.8,170 128,212 53.2,170 53.2,86"
    fill="none"
    stroke="#1e2329"
    stroke-opacity="0.35"
    stroke-width="4"
    stroke-linejoin="round"
  />

  <!-- Subtle brand panel within hex -->
  <g clip-path="url(#hexClip)">
    <circle cx="128" cy="140" r="70" fill="url(#panelGrad)"/>
  </g>

  <!-- Robot: central antenna -->
  <line x1="128" y1="92" x2="128" y2="72" stroke="#111827" stroke-width="6" stroke-linecap="round"/>
  <circle cx="128" cy="64" r="10" fill="url(#gold)"/>
  <circle cx="128" cy="64" r="16" fill="none" stroke="#f0b90b" stroke-opacity="0.35" stroke-width="4"/>

  <!-- Side panels (ears) -->
  <rect x="64" y="122" width="12" height="34" rx="6" fill="#e5e7eb"/>
  <rect x="180" y="122" width="12" height="34" rx="6" fill="#e5e7eb"/>

  <!-- Head base -->
  <rect x="74" y="96" width="108" height="88" rx="28" ry="28" fill="#ffffff"/>
  <rect x="74" y="96" width="108" height="88" rx="28" ry="28" fill="none" stroke="url(#brand)" stroke-width="3"/>

  <!-- Face panel -->
  <rect x="90" y="122" width="76" height="48" rx="20" ry="20" fill="#f9fafb" stroke="#e5e7eb" stroke-width="2"/>

  <!-- Forehead accent vents -->
  <rect x="96" y="116" width="28" height="6" rx="3" fill="url(#blue)" opacity="0.95"/>
  <rect x="132" y="116" width="28" height="6" rx="3" fill="url(#gold)" opacity="0.95"/>

  <!-- Eyes -->
  <rect x="98" y="136" width="22" height="14" rx="7" ry="7" fill="#111827"/>
  <rect x="136" y="136" width="22" height="14" rx="7" ry="7" fill="#111827"/>
  <circle cx="108" cy="140" r="2.5" fill="#ffffff" opacity="0.9"/>
  <circle cx="146" cy="140" r="2.5" fill="#ffffff" opacity="0.9"/>

  <!-- Smile -->
  <path d="M98 156 C114 170, 142 170, 158 156" fill="none" stroke="#111827" stroke-width="6" stroke-linecap="round"/>

  <!-- Chin highlight -->
  <path d="M92 164 Q128 184 164 164" fill="none" stroke="#94a3b8" stroke-opacity="0.35" stroke-width="4" stroke-linecap="round"/>
</svg>